<svg width="100" height="100" viewBox="0 0 100 100" fill="none" xmlns="http://www.w3.org/2000/svg">
<g clip-path="url(#clip0_19_2347)">
<mask id="mask0_19_2347" style="mask-type:luminance" maskUnits="userSpaceOnUse" x="10" y="10" width="80" height="81">
<path d="M90 10.1665H10V90.1665H90V10.1665Z" fill="white"/>
</mask>
<g mask="url(#mask0_19_2347)">
<mask id="mask1_19_2347" style="mask-type:luminance" maskUnits="userSpaceOnUse" x="-57" y="-58" width="217" height="217">
<path d="M-56.3334 -57.626H159.667V158.374H-56.3334V-57.626Z" fill="white"/>
</mask>
<g mask="url(#mask1_19_2347)">
<path d="M17.1225 35.6792C16.2787 38.8315 18.1462 42.0692 21.2985 42.9152L35.5635 46.7357C38.7135 47.5817 41.9557 45.7097 42.7995 42.5597L46.62 28.2947C47.4637 25.1425 45.594 21.9047 42.444 21.0587L28.179 17.236C25.029 16.3922 21.7867 18.262 20.943 21.4142L17.1225 35.6792Z" fill="#C5C6CA"/>
<path d="M53.3924 36.5254C50.9759 40.9534 54.1822 46.3534 59.2267 46.3534H76.7114C81.7559 46.3534 84.9599 40.9534 82.5457 36.5254L73.8022 20.4986C71.2844 15.8794 64.6537 15.8794 62.1337 20.4986L53.3924 36.5254Z" fill="#C5C6CA"/>
<path d="M29.7539 54.4779C30.9239 53.2876 32.8162 53.2876 33.9884 54.4779L36.4994 57.0316C36.9787 57.5176 37.6042 57.8259 38.2747 57.9046L41.7982 58.3164C43.4384 58.5076 44.6197 60.0174 44.4374 61.6936L44.0459 65.2891C43.9717 65.9754 44.1269 66.6661 44.4847 67.2511L46.3657 70.3179C47.2432 71.7466 46.8224 73.6299 45.4229 74.5299L42.4259 76.4604C41.8544 76.8271 41.4202 77.3829 41.1952 78.0331L40.0184 81.4464C39.4717 83.0349 37.7662 83.8741 36.2047 83.3206L32.8567 82.1304C32.2177 81.9054 31.5224 81.9054 30.8857 82.1304L27.5354 83.3206C25.9762 83.8741 24.2707 83.0349 23.7217 81.4464L22.5449 78.0331C22.3222 77.3829 21.8879 76.8271 21.3164 76.4604L18.3172 74.5299C16.9199 73.6299 16.4992 71.7466 17.3744 70.3179L19.2577 67.2511C19.6154 66.6661 19.7707 65.9754 19.6942 65.2891L19.3049 61.6936C19.1227 60.0174 20.3017 58.5076 21.9442 58.3164L25.4654 57.9046C26.1382 57.8259 26.7637 57.5176 27.2429 57.0316L29.7539 54.4779Z" fill="#C5C6CA"/>
<path d="M65.0182 81.1203C66.1882 84.2815 70.6589 84.2815 71.8289 81.1203L73.3522 77.0005C73.9574 75.3648 75.2489 74.0733 76.8869 73.468L81.0044 71.9425C84.1657 70.7748 84.1657 66.304 81.0044 65.134L76.8869 63.6085C75.2489 63.0033 73.9574 61.7118 73.3522 60.076L71.8289 55.9563C70.6589 52.795 66.1882 52.795 65.0182 55.9563L63.4949 60.076C62.8874 61.7118 61.5982 63.0033 59.9602 63.6085L55.8404 65.134C52.6792 66.304 52.6792 70.7748 55.8404 71.9425L59.9602 73.468C61.5982 74.0733 62.8874 75.3648 63.4949 77.0005L65.0182 81.1203Z" fill="#C5C6CA"/>
</g>
</g>
</g>
<defs>
<clipPath id="clip0_19_2347">
<rect width="80" height="80" fill="white" transform="translate(10 10)"/>
</clipPath>
</defs>
</svg>
