<svg width="100" height="100" viewBox="0 0 100 100" fill="none" xmlns="http://www.w3.org/2000/svg">
<path d="M56.5334 28.3666L71.8 43.6333C72.1099 43.9457 72.4786 44.1937 72.8848 44.3629C73.291 44.5321 73.7267 44.6193 74.1667 44.6193C74.6067 44.6193 75.0424 44.5321 75.4486 44.3629C75.8548 44.1937 76.2235 43.9457 76.5334 43.6333L81.1334 39.0333C82.375 37.7842 83.072 36.0945 83.072 34.3333C83.072 32.572 82.375 30.8824 81.1334 29.6333L70.5334 19.0333C69.2843 17.7916 67.5946 17.0947 65.8334 17.0947C64.0721 17.0947 62.3825 17.7916 61.1334 19.0333L56.5334 23.6333C56.2209 23.9432 55.973 24.3118 55.8037 24.718C55.6345 25.1242 55.5474 25.5599 55.5474 25.9999C55.5474 26.44 55.6345 26.8757 55.8037 27.2819C55.973 27.6881 56.2209 28.0567 56.5334 28.3666ZM17.0334 77.3666L19.4667 63.2999C19.8139 61.2687 20.7802 59.3944 22.2334 57.9333L48.4667 31.6999C48.7766 31.3875 49.1452 31.1395 49.5514 30.9703C49.9576 30.8011 50.3933 30.714 50.8334 30.714C51.2734 30.714 51.7091 30.8011 52.1153 30.9703C52.5215 31.1395 52.8902 31.3875 53.2 31.6999L68.4667 46.9666C68.7791 47.2765 69.0271 47.6452 69.1963 48.0514C69.3656 48.4576 69.4527 48.8932 69.4527 49.3333C69.4527 49.7733 69.3656 50.209 69.1963 50.6152C69.0271 51.0214 68.7791 51.3901 68.4667 51.6999L42.2334 77.9333C40.7812 79.3804 38.9194 80.3462 36.9 80.6999L22.8 83.1333C22.0128 83.267 21.205 83.2102 20.4443 82.9677C19.6835 82.7252 18.9918 82.304 18.4272 81.7394C17.8626 81.1748 17.4414 80.4832 17.1989 79.7224C16.9564 78.9616 16.8997 78.1538 17.0334 77.3666Z" fill="#C5C6CA"/>
</svg>
