<svg width="100" height="100" viewBox="0 0 100 100" fill="none" xmlns="http://www.w3.org/2000/svg">
<path fill-rule="evenodd" clip-rule="evenodd" d="M50 86.8333C59.7246 86.8333 69.0509 82.9702 75.9273 76.0939C82.8036 69.2176 86.6667 59.8913 86.6667 50.1667C86.6667 40.4421 82.8036 31.1157 75.9273 24.2394C69.0509 17.3631 59.7246 13.5 50 13.5C40.2754 13.5 30.9491 17.3631 24.0728 24.2394C17.1965 31.1157 13.3334 40.4421 13.3334 50.1667C13.3334 59.8913 17.1965 69.2176 24.0728 76.0939C30.9491 82.9702 40.2754 86.8333 50 86.8333ZM31.6667 53.5C32.9928 53.5 34.2645 52.9732 35.2022 52.0355C36.1399 51.0979 36.6667 49.8261 36.6667 48.5C36.6667 47.1739 36.1399 45.9021 35.2022 44.9645C34.2645 44.0268 32.9928 43.5 31.6667 43.5C30.3406 43.5 29.0688 44.0268 28.1312 44.9645C27.1935 45.9021 26.6667 47.1739 26.6667 48.5C26.6667 49.8261 27.1935 51.0979 28.1312 52.0355C29.0688 52.9732 30.3406 53.5 31.6667 53.5ZM68.3334 53.5C69.6594 53.5 70.9312 52.9732 71.8689 52.0355C72.8066 51.0979 73.3334 49.8261 73.3334 48.5C73.3334 47.1739 72.8066 45.9021 71.8689 44.9645C70.9312 44.0268 69.6594 43.5 68.3334 43.5C67.0073 43.5 65.7355 44.0268 64.7978 44.9645C63.8601 45.9021 63.3334 47.1739 63.3334 48.5C63.3334 49.8261 63.8601 51.0979 64.7978 52.0355C65.7355 52.9732 67.0073 53.5 68.3334 53.5ZM35.6667 57.4C36.0298 57.1543 36.4379 56.9827 36.8674 56.895C37.297 56.8072 37.7397 56.8051 38.1701 56.8887C38.6005 56.9723 39.0102 57.14 39.3756 57.3822C39.7411 57.6243 40.0553 57.9362 40.3 58.3C41.366 59.895 42.8088 61.2026 44.5008 62.1069C46.1927 63.0112 48.0816 63.4843 50 63.4843C51.9185 63.4843 53.8073 63.0112 55.4993 62.1069C57.1912 61.2026 58.6341 59.895 59.7 58.3C60.1951 57.5662 60.9614 57.0592 61.8303 56.8904C62.6992 56.7216 63.5996 56.9049 64.3334 57.4C65.0671 57.8951 65.5742 58.6614 65.7429 59.5303C65.9117 60.3992 65.7284 61.2996 65.2334 62.0333C63.5576 64.5359 61.291 66.587 58.6341 68.0054C55.9773 69.4238 53.0118 70.1659 50 70.1659C46.9882 70.1659 44.0228 69.4238 41.3659 68.0054C38.709 66.587 36.4425 64.5359 34.7667 62.0333C34.5158 61.669 34.3399 61.2584 34.2493 60.8254C34.1587 60.3925 34.1552 59.9458 34.2389 59.5114C34.3227 59.0771 34.4921 58.6637 34.7372 58.2955C34.9823 57.9273 35.2983 57.6115 35.6667 57.3667V57.4Z" fill="#C5C6CA"/>
</svg>
