<svg width="100" height="100" viewBox="0 0 100 100" fill="none" xmlns="http://www.w3.org/2000/svg">
<path fill-rule="evenodd" clip-rule="evenodd" d="M26.6666 16.8333C24.0145 16.8333 21.4709 17.8869 19.5956 19.7622C17.7202 21.6376 16.6666 24.1811 16.6666 26.8333V73.5C16.6666 76.1521 17.7202 78.6957 19.5956 80.571C21.4709 82.4464 24.0145 83.5 26.6666 83.5H73.3333C75.9855 83.5 78.529 82.4464 80.4044 80.571C82.2797 78.6957 83.3333 76.1521 83.3333 73.5V26.8333C83.3333 24.1811 82.2797 21.6376 80.4044 19.7622C78.529 17.8869 75.9855 16.8333 73.3333 16.8333H26.6666ZM33.9333 63.0666C31.9656 63.0981 30.0351 62.5283 28.4 61.4333C26.7582 60.313 25.4646 58.7536 24.6666 56.9333C23.7436 54.799 23.289 52.4916 23.3333 50.1666C23.3333 47.6666 23.8 45.4333 24.7333 43.5C25.7 41.5333 27.0666 40.0333 28.8666 38.9333C30.8376 37.7877 33.0876 37.2108 35.3666 37.2666C37.5 37.2666 39.4 37.7333 41.1 38.6C42.7666 39.5333 44.0666 40.8333 44.9333 42.4666L40.8666 45.4C40.3861 44.362 39.6126 43.4872 38.6413 42.8832C37.6701 42.2791 36.5434 41.9721 35.4 42C33.2 42 31.5 42.7333 30.3333 44.1666C29.0566 45.8964 28.431 48.021 28.5666 50.1666C28.5666 52.7666 29.1666 54.8 30.3333 56.2C31.5 57.6 33.2 58.3333 35.4 58.3333C36.4 58.3333 37.3 58.1333 38.1 57.8C38.9333 57.4 39.6 56.9 40.0333 56.2333V53.1333H34.3333V48.4666H45.1333V62.5666H40.9L40.2333 60.2C38.8 62.1 36.7 63.0666 33.9333 63.0666ZM55.0666 62.5666H49.8333V37.7666H55.0666V62.5666ZM60.1 62.5666H65.3333V53.1333H74.5333V48.4H65.3333V42.5H76.6666V37.7666H60.1V62.5666Z" fill="#C5C6CA"/>
</svg>
