<svg width="100" height="100" viewBox="0 0 100 100" fill="none" xmlns="http://www.w3.org/2000/svg">
<mask id="mask0_19_2317" style="mask-type:luminance" maskUnits="userSpaceOnUse" x="10" y="10" width="80" height="81">
<path d="M90 10.1665H10V90.1665H90V10.1665Z" fill="white"/>
</mask>
<g mask="url(#mask0_19_2317)">
<mask id="mask1_19_2317" style="mask-type:luminance" maskUnits="userSpaceOnUse" x="10" y="10" width="80" height="81">
<path d="M10 10.1665H90V90.1665H10V10.1665Z" fill="white"/>
</mask>
<g mask="url(#mask1_19_2317)">
<path d="M26.6667 83.4999C22.9833 83.4999 20 80.5166 20 76.8333V58.4999C20 57.5799 20.7467 56.8333 21.6667 56.8333H45C45.92 56.8333 46.6667 57.5799 46.6667 58.4999V81.8333C46.6667 82.7533 45.92 83.4999 45 83.4999H26.6667ZM53.3333 81.8333C53.3333 82.7533 54.08 83.4999 55 83.4999H73.3333C77.0167 83.4999 80 80.5166 80 76.8333V58.4999C80 57.5799 79.2533 56.8333 78.3333 56.8333H55C54.08 56.8333 53.3333 57.5799 53.3333 58.4999V81.8333Z" fill="#C5C6CA"/>
<path d="M16.6666 43.4999C16.6666 39.8166 19.65 36.8333 23.3333 36.8333H76.6666C80.35 36.8333 83.3333 39.8166 83.3333 43.4999V48.4999C83.3333 49.4199 82.5866 50.1666 81.6666 50.1666H18.3333C17.4133 50.1666 16.6666 49.4199 16.6666 48.4999V43.4999Z" fill="#C5C6CA"/>
<path d="M73.3333 30.1665C73.3333 24.6432 68.8567 20.1665 63.3333 20.1665H63.0367C58.3133 20.1665 54.1967 23.3798 53.05 27.9632L50 40.1665H63.3333C68.8567 40.1665 73.3333 35.6898 73.3333 30.1665Z" stroke="#C5C6CA" stroke-width="4" stroke-linejoin="round"/>
<path d="M26.6666 30.1665C26.6666 24.6432 31.1433 20.1665 36.6666 20.1665H36.9633C41.6866 20.1665 45.8033 23.3798 46.95 27.9632L50 40.1665H36.6666C31.1433 40.1665 26.6666 35.6898 26.6666 30.1665Z" stroke="#C5C6CA" stroke-width="4" stroke-linejoin="round"/>
</g>
</g>
</svg>
