<svg width="100" height="100" viewBox="0 0 100 100" fill="none" xmlns="http://www.w3.org/2000/svg">
<path d="M58.3334 36.8334C60.1213 36.8356 61.877 36.3584 63.4179 35.4516C64.9587 34.5448 66.2282 33.2414 67.0942 31.6773C67.9603 30.1132 68.3911 28.3455 68.342 26.5583C68.2928 24.7711 67.7654 23.0298 66.8146 21.5157C65.8639 20.0016 64.5246 18.77 62.9363 17.9493C61.3479 17.1286 59.5686 16.7487 57.7836 16.8492C55.9985 16.9497 54.2731 17.5269 52.7869 18.5208C51.3007 19.5146 50.1082 20.8888 49.3334 22.5C48.6667 23.8334 49.5334 25.3667 50.8001 26.2334C54.4199 28.6004 56.9778 32.2819 57.9334 36.5C57.9667 36.7 58.1334 36.8334 58.3334 36.8334ZM71.4667 67.7334C71.9667 69.1667 73.2668 70.1667 74.8001 70.1667H78.3334C81.1001 70.1667 83.3334 67.9334 83.3334 65.1667C83.331 59.1154 81.1338 53.2704 77.1494 48.716C73.165 44.1616 67.664 41.2069 61.6667 40.4C59.8334 40.1334 58.3667 41.6667 58.0001 43.4667C57.8001 44.4667 57.5001 45.4667 57.1334 46.3667C56.3667 48.3 56.9667 50.7 58.7001 51.8C64.593 55.5616 69.0804 61.1621 71.4667 67.7334ZM51.6667 40.1667C51.6667 41.4799 51.4081 42.7803 50.9055 43.9935C50.403 45.2068 49.6664 46.3092 48.7378 47.2378C47.8092 48.1664 46.7068 48.903 45.4936 49.4055C44.2803 49.908 42.98 50.1667 41.6667 50.1667C40.3535 50.1667 39.0532 49.908 37.8399 49.4055C36.6267 48.903 35.5243 48.1664 34.5957 47.2378C33.6671 46.3092 32.9305 45.2068 32.428 43.9935C31.9254 42.7803 31.6667 41.4799 31.6667 40.1667C31.6667 37.5145 32.7203 34.971 34.5957 33.0956C36.471 31.2203 39.0146 30.1667 41.6667 30.1667C44.3189 30.1667 46.8625 31.2203 48.7378 33.0956C50.6132 34.971 51.6667 37.5145 51.6667 40.1667ZM16.6667 78.5C16.6667 71.8696 19.3007 65.5108 23.9891 60.8224C28.6775 56.134 35.0363 53.5 41.6667 53.5C48.2972 53.5 54.656 56.134 59.3444 60.8224C64.0328 65.5108 66.6667 71.8696 66.6667 78.5C66.6667 81.2667 64.4334 83.5 61.6667 83.5C61.5108 83.5032 61.3587 83.4515 61.2368 83.3541C61.115 83.2566 61.0312 83.1196 61.0001 82.9667C60.3334 79.7667 59.1334 76.7334 58.0667 74.5C57.7334 73.7334 56.6667 74 56.6667 74.8334V81.8334C56.6667 82.2754 56.4912 82.6993 56.1786 83.0119C55.866 83.3244 55.4421 83.5 55.0001 83.5H28.3334C27.8914 83.5 27.4675 83.3244 27.1549 83.0119C26.8423 82.6993 26.6667 82.2754 26.6667 81.8334V74.8334C26.6667 74 25.6334 73.7334 25.2667 74.5C24.2001 76.7334 23.0334 79.7667 22.3334 82.9667C22.3022 83.1196 22.2185 83.2566 22.0967 83.3541C21.9748 83.4515 21.8227 83.5032 21.6667 83.5C20.3407 83.5 19.0689 82.9733 18.1312 82.0356C17.1935 81.0979 16.6667 79.8261 16.6667 78.5Z" fill="#C5C6CA"/>
</svg>
