<svg width="100" height="100" viewBox="0 0 100 100" fill="none" xmlns="http://www.w3.org/2000/svg">
<path d="M50 16.833C42.82 16.833 37 22.653 37 29.833V48.5C37 55.68 42.82 61.5 50 61.5C57.18 61.5 63 55.68 63 48.5V29.833C63 22.653 57.18 16.833 50 16.833Z" fill="#C5C6CA"/>
<path fill-rule="evenodd" clip-rule="evenodd" d="M28.5 46.833C28.5 45.729 29.396 44.833 30.5 44.833C31.604 44.833 32.5 45.729 32.5 46.833C32.5 56.492 40.341 64.333 50 64.333C59.659 64.333 67.5 56.492 67.5 46.833C67.5 45.729 68.396 44.833 69.5 44.833C70.604 44.833 71.5 45.729 71.5 46.833C71.5 57.846 63.336 66.95 52.5 68.268V78.5H63.333C64.438 78.5 65.333 79.395 65.333 80.5C65.333 81.605 64.438 82.5 63.333 82.5H36.667C35.562 82.5 34.667 81.605 34.667 80.5C34.667 79.395 35.562 78.5 36.667 78.5H47.5V68.268C36.664 66.95 28.5 57.846 28.5 46.833Z" fill="#C5C6CA"/>
</svg>
