<svg width="100" height="100" viewBox="0 0 100 100" fill="none" xmlns="http://www.w3.org/2000/svg">
<path d="M42.3333 19.8C42.9333 19.5667 43.4 19 43.5667 18.3667C43.9505 16.9544 44.7883 15.7077 45.951 14.8188C47.1137 13.9299 48.5365 13.4484 50 13.4484C51.4635 13.4484 52.8863 13.9299 54.049 14.8188C55.2117 15.7077 56.0495 16.9544 56.4333 18.3667C56.6 19.0334 57.0667 19.5667 57.7 19.8C62.2693 21.3974 66.2288 24.3763 69.0298 28.324C71.8309 32.2717 73.3348 36.9929 73.3333 41.8334V48.8C73.3333 49.2 73.5 49.6 73.7667 49.9L77.4333 53.9667C79.0882 55.8057 80.0027 58.1928 80 60.6667V61.6C80 63.8334 78.8667 65.9 76.8333 66.8C72.4667 68.8 63.5 71.8334 50 71.8334C36.5 71.8334 27.5333 68.8 23.1667 66.8334C21.1333 65.9 20 63.8334 20 61.6V60.6667C20.0056 58.2043 20.9195 55.8304 22.5667 54L26.2333 49.9C26.5073 49.5986 26.6615 49.2073 26.6667 48.8V41.8334C26.6676 36.9888 28.1764 32.2647 30.9838 28.3165C33.7911 24.3683 37.7578 21.3918 42.3333 19.8ZM40.6 76.3C40.5246 76.2905 40.448 76.2973 40.3754 76.3198C40.3028 76.3423 40.2358 76.3801 40.179 76.4306C40.1222 76.4811 40.0768 76.5431 40.0459 76.6126C40.0151 76.6821 39.9994 76.7573 40 76.8334C40 79.4855 41.0536 82.0291 42.9289 83.9044C44.8043 85.7798 47.3478 86.8334 50 86.8334C52.6522 86.8334 55.1957 85.7798 57.0711 83.9044C58.9464 82.0291 60 79.4855 60 76.8334C60 76.5 59.7 76.2667 59.4 76.3C53.1536 77.0132 46.8464 77.0132 40.6 76.3Z" fill="#C5C6CA"/>
</svg>
