<svg width="100" height="100" viewBox="0 0 100 100" fill="none" xmlns="http://www.w3.org/2000/svg">
<path d="M74.5999 48.0999C76.4749 49.9726 79.0166 51.0244 81.6666 51.0244C84.3166 51.0244 86.8582 49.9726 88.7332 48.0999L88.8332 47.9999C89.1386 47.6884 89.3097 47.2695 89.3097 46.8332C89.3097 46.397 89.1386 45.9781 88.8332 45.6666L54.4999 11.3332C54.1883 11.0279 53.7695 10.8568 53.3332 10.8568C52.897 10.8568 52.4781 11.0279 52.1666 11.3332L52.0666 11.4332C50.1939 13.3082 49.142 15.8499 49.142 18.4999C49.142 21.1499 50.1939 23.6916 52.0666 25.5666L53.3332 26.8332L43.5999 36.5666L31.4332 35.4332C30.4568 35.3434 29.4725 35.4701 28.5507 35.8043C27.6288 36.1385 26.792 36.6719 26.0999 37.3666L24.0332 39.4666C23.7208 39.7764 23.4728 40.1451 23.3036 40.5513C23.1344 40.9575 23.0472 41.3932 23.0472 41.8332C23.0472 42.2733 23.1344 42.709 23.3036 43.1152C23.4728 43.5214 23.7208 43.89 24.0332 44.1999L55.9666 76.1332C56.2764 76.4457 56.6451 76.6936 57.0513 76.8629C57.4575 77.0321 57.8932 77.1192 58.3332 77.1192C58.7733 77.1192 59.209 77.0321 59.6152 76.8629C60.0213 76.6936 60.39 76.4457 60.6999 76.1332L62.7999 74.0332C63.4945 73.3412 64.028 72.5043 64.3622 71.5825C64.6963 70.6606 64.823 69.6764 64.7332 68.6999L63.5999 56.5666L73.3332 46.8332L74.5999 48.0999ZM40.2332 67.0666C40.4072 67.2418 40.5401 67.4535 40.6223 67.6864C40.7044 67.9193 40.7338 68.1675 40.7083 68.4131C40.6828 68.6587 40.603 68.8956 40.4747 69.1066C40.3464 69.3176 40.1729 69.4975 39.9666 69.6332L22.7999 81.0666C22.4805 81.2806 22.0969 81.3775 21.7142 81.3411C21.3315 81.3046 20.9732 81.137 20.6999 80.8666L19.2999 79.4666C19.0295 79.1933 18.8618 78.835 18.8254 78.4522C18.7889 78.0695 18.8859 77.686 19.0999 77.3666L30.5332 60.1666C30.669 59.9603 30.8488 59.7867 31.0598 59.6584C31.2709 59.5302 31.5077 59.4504 31.7534 59.4249C31.999 59.3993 32.2472 59.4287 32.4801 59.5109C32.7129 59.593 32.9247 59.7259 33.0999 59.8999L40.2332 67.0332V67.0666Z" fill="#C5C6CA"/>
</svg>
