<svg width="100" height="100" viewBox="0 0 100 100" fill="none" xmlns="http://www.w3.org/2000/svg">
<path fill-rule="evenodd" clip-rule="evenodd" d="M50 86.8331C59.7246 86.8331 69.051 82.97 75.9273 76.0937C82.8036 69.2173 86.6667 59.891 86.6667 50.1664C86.6667 40.4418 82.8036 31.1155 75.9273 24.2392C69.051 17.3628 59.7246 13.4998 50 13.4998C40.2754 13.4998 30.9491 17.3628 24.0728 24.2392C17.1965 31.1155 13.3334 40.4418 13.3334 50.1664C13.3334 59.891 17.1965 69.2173 24.0728 76.0937C30.9491 82.97 40.2754 86.8331 50 86.8331ZM50 30.1664C50.8841 30.1664 51.7319 30.5176 52.3571 31.1427C52.9822 31.7679 53.3334 32.6157 53.3334 33.4998V46.8331H66.6667C67.5508 46.8331 68.3986 47.1843 69.0237 47.8094C69.6489 48.4345 70 49.2824 70 50.1664C70 51.0505 69.6489 51.8983 69.0237 52.5234C68.3986 53.1486 67.5508 53.4998 66.6667 53.4998H53.3334V66.8331C53.3334 67.7171 52.9822 68.565 52.3571 69.1901C51.7319 69.8152 50.8841 70.1664 50 70.1664C49.116 70.1664 48.2681 69.8152 47.643 69.1901C47.0179 68.565 46.6667 67.7171 46.6667 66.8331V53.4998H33.3334C32.4493 53.4998 31.6015 53.1486 30.9764 52.5234C30.3512 51.8983 30 51.0505 30 50.1664C30 49.2824 30.3512 48.4345 30.9764 47.8094C31.6015 47.1843 32.4493 46.8331 33.3334 46.8331H46.6667V33.4998C46.6667 32.6157 47.0179 31.7679 47.643 31.1427C48.2681 30.5176 49.116 30.1664 50 30.1664Z" fill="#C5C6CA"/>
</svg>
