<svg width="100" height="100" viewBox="0 0 100 100" fill="none" xmlns="http://www.w3.org/2000/svg">
<path fill-rule="evenodd" clip-rule="evenodd" d="M49.9999 86.8331C59.7245 86.8331 69.0508 82.97 75.9272 76.0937C82.8035 69.2173 86.6666 59.891 86.6666 50.1664C86.6666 40.4418 82.8035 31.1155 75.9272 24.2392C69.0508 17.3628 59.7245 13.4998 49.9999 13.4998C40.2753 13.4998 30.949 17.3628 24.0727 24.2392C17.1963 31.1155 13.3333 40.4418 13.3333 50.1664C13.3333 59.891 17.1963 69.2173 24.0727 76.0937C30.949 82.97 40.2753 86.8331 49.9999 86.8331ZM53.3333 26.8331C53.3333 25.949 52.9821 25.1012 52.3569 24.4761C51.7318 23.8509 50.884 23.4998 49.9999 23.4998C49.1159 23.4998 48.268 23.8509 47.6429 24.4761C47.0178 25.1012 46.6666 25.949 46.6666 26.8331V50.1664C46.6666 51.0664 46.9999 51.8998 47.6666 52.4998L57.6666 62.4998C58.3085 62.9812 59.1025 63.2149 59.9029 63.158C60.7033 63.1012 61.4562 62.7575 62.0236 62.1901C62.591 61.6227 62.9347 60.8698 62.9915 60.0694C63.0484 59.269 62.8147 58.475 62.3333 57.8331L53.3333 48.7664V26.8331Z" fill="#C5C6CA"/>
</svg>
