<svg width="100" height="100" viewBox="0 0 100 100" fill="none" xmlns="http://www.w3.org/2000/svg">
<path fill-rule="evenodd" clip-rule="evenodd" d="M62.0666 66.9333C56.077 71.7216 48.481 74.0344 40.8392 73.3967C33.1974 72.759 26.0899 69.2192 20.9766 63.5044C15.8634 57.7895 13.1328 50.3336 13.3455 42.6682C13.5583 35.0027 16.6984 27.7098 22.1208 22.2874C27.5432 16.865 34.8361 13.725 42.5015 13.5122C50.167 13.2994 57.6229 16.0301 63.3377 21.1433C69.0526 26.2565 72.5924 33.364 73.2301 41.0058C73.8678 48.6477 71.5549 56.2436 66.7666 62.2333L82.3666 77.7999C82.6774 78.1107 82.924 78.4797 83.0922 78.8858C83.2604 79.2918 83.3469 79.7271 83.3469 80.1666C83.3469 80.6061 83.2604 81.0414 83.0922 81.4474C82.924 81.8535 82.6774 82.2225 82.3666 82.5333C82.0558 82.8441 81.6869 83.0906 81.2808 83.2588C80.8747 83.427 80.4395 83.5136 80 83.5136C79.5604 83.5136 79.1252 83.427 78.7191 83.2588C78.3131 83.0906 77.9441 82.8441 77.6333 82.5333L62.0666 66.9333ZM66.6666 43.4999C66.6666 46.5641 66.0631 49.5983 64.8905 52.4292C63.7179 55.2601 61.9992 57.8324 59.8325 59.9991C57.6658 62.1658 55.0935 63.8845 52.2626 65.0571C49.4317 66.2297 46.3975 66.8333 43.3333 66.8333C40.2691 66.8333 37.2349 66.2297 34.404 65.0571C31.5731 63.8845 29.0008 62.1658 26.8341 59.9991C24.6674 57.8324 22.9487 55.2601 21.7761 52.4292C20.6035 49.5983 20 46.5641 20 43.4999C20 37.3115 22.4583 31.3766 26.8341 27.0008C31.21 22.6249 37.1449 20.1666 43.3333 20.1666C49.5217 20.1666 55.4566 22.6249 59.8325 27.0008C64.2083 31.3766 66.6666 37.3115 66.6666 43.4999Z" fill="#C5C6CA"/>
</svg>
