<svg width="100" height="100" viewBox="0 0 100 100" fill="none" xmlns="http://www.w3.org/2000/svg">
<path fill-rule="evenodd" clip-rule="evenodd" d="M26.6665 16.8333C24.0143 16.8333 21.4708 17.8869 19.5954 19.7622C17.7201 21.6376 16.6665 24.1811 16.6665 26.8333V73.5C16.6665 76.1521 17.7201 78.6957 19.5954 80.571C21.4708 82.4464 24.0143 83.5 26.6665 83.5H73.3332C75.9853 83.5 78.5289 82.4464 80.4042 80.571C82.2796 78.6957 83.3332 76.1521 83.3332 73.5V26.8333C83.3332 24.1811 82.2796 21.6376 80.4042 19.7622C78.5289 17.8869 75.9853 16.8333 73.3332 16.8333H26.6665ZM69.2998 28.0666C69.3694 27.9396 69.4046 27.7966 69.402 27.6517C69.3994 27.5069 69.3591 27.3653 69.2851 27.2407C69.211 27.1162 69.1058 27.0132 68.9798 26.9417C68.8538 26.8703 68.7114 26.8329 68.5665 26.8333H58.1332C57.6868 26.8288 57.2473 26.9439 56.8604 27.1666C56.4736 27.3894 56.1534 27.7117 55.9332 28.1L30.6998 72.2666C30.3665 72.8 30.7998 73.5 31.4332 73.5H41.8665C42.7665 73.5 43.5998 73.0333 44.0665 72.2333L69.2998 28.0666Z" fill="#C5C6CA"/>
</svg>
