<svg width="100" height="100" viewBox="0 0 100 100" fill="none" xmlns="http://www.w3.org/2000/svg">
<path fill-rule="evenodd" clip-rule="evenodd" d="M16.9 46.6333C16.2048 46.1121 15.6898 45.3865 15.4273 44.5581C15.1648 43.7298 15.1679 42.8401 15.436 42.0136C15.7042 41.187 16.2241 40.465 16.9229 39.9486C17.6217 39.4321 18.4645 39.147 19.3334 39.1333H39.7334L46.0667 19.7C47.3 15.8666 52.7334 15.8666 53.9667 19.7L60.2667 39.1333H80.6667C84.6667 39.1333 86.3667 44.2666 83.1 46.6333L66.6 58.6333L72.9334 78.0333C73.2139 78.8738 73.2192 79.7819 72.9484 80.6257C72.6776 81.4695 72.1449 82.2049 71.4276 82.7252C70.7103 83.2455 69.8458 83.5236 68.9597 83.5191C68.0736 83.5145 67.212 83.2276 66.5 82.7L50 70.7L33.5 82.7C30.2334 85.0333 25.8334 81.8666 27.1 78.0333L33.4 58.6333L16.9 46.6333ZM55.4 45.8H72.9334L58.7667 56.1L64.1667 72.7666L50 62.4333L35.8334 72.7666L41.2334 56.1L27.0667 45.7666H44.6L50 29.1L55.4 45.7666V45.8Z" fill="#C5C6CA"/>
</svg>
