<svg width="100" height="100" viewBox="0 0 100 100" fill="none" xmlns="http://www.w3.org/2000/svg">
<path fill-rule="evenodd" clip-rule="evenodd" d="M30.0001 16.8333H70.0001C73.5363 16.8333 76.9277 18.238 79.4282 20.7385C81.9287 23.2389 83.3335 26.6303 83.3335 30.1665V55.1665C83.3335 55.6086 83.1579 56.0325 82.8453 56.3451C82.5327 56.6576 82.1088 56.8332 81.6668 56.8332H73.3335C68.9132 56.8332 64.6739 58.5892 61.5483 61.7148C58.4227 64.8404 56.6668 69.0796 56.6668 73.4999V81.8332C56.6668 82.2752 56.4912 82.6992 56.1786 83.0117C55.8661 83.3243 55.4421 83.4999 55.0001 83.4999H30.0001C26.4639 83.4999 23.0725 82.0951 20.572 79.5946C18.0715 77.0941 16.6667 73.7028 16.6667 70.1665V30.1665C16.6667 26.6303 18.0715 23.2389 20.572 20.7385C23.0725 18.238 26.4639 16.8333 30.0001 16.8333ZM31.6668 43.4999C32.9929 43.4999 34.2646 42.9731 35.2023 42.0354C36.14 41.0977 36.6668 39.826 36.6668 38.4999C36.6668 37.1738 36.14 35.902 35.2023 34.9643C34.2646 34.0267 32.9929 33.4999 31.6668 33.4999C30.3407 33.4999 29.0689 34.0267 28.1313 34.9643C27.1936 35.902 26.6668 37.1738 26.6668 38.4999C26.6668 39.826 27.1936 41.0977 28.1313 42.0354C29.0689 42.9731 30.3407 43.4999 31.6668 43.4999ZM73.3335 38.4999C73.3335 39.826 72.8067 41.0977 71.869 42.0354C70.9313 42.9731 69.6595 43.4999 68.3335 43.4999C67.0074 43.4999 65.7356 42.9731 64.7979 42.0354C63.8602 41.0977 63.3335 39.826 63.3335 38.4999C63.3335 37.1738 63.8602 35.902 64.7979 34.9643C65.7356 34.0267 67.0074 33.4999 68.3335 33.4999C69.6595 33.4999 70.9313 34.0267 71.869 34.9643C72.8067 35.902 73.3335 37.1738 73.3335 38.4999ZM40.3001 48.2999C39.805 47.5661 39.0388 47.0591 38.1699 46.8903C37.3009 46.7215 36.4006 46.9048 35.6668 47.3999C34.933 47.8949 34.426 48.6612 34.2572 49.5301C34.0884 50.3991 34.2717 51.2994 34.7668 52.0332C36.4426 54.5357 38.7091 56.5869 41.366 58.0053C44.0229 59.4237 46.9883 60.1657 50.0001 60.1657C53.0119 60.1657 55.9773 59.4237 58.6342 58.0053C61.2911 56.5869 63.5577 54.5357 65.2335 52.0332C65.4786 51.6699 65.6498 51.2618 65.7372 50.8324C65.8246 50.4029 65.8266 49.9604 65.743 49.5301C65.6595 49.0999 65.492 48.6903 65.2501 48.3248C65.0083 47.9593 64.6968 47.645 64.3335 47.3999C63.9701 47.1547 63.5621 46.9836 63.1326 46.8961C62.7031 46.8087 62.2606 46.8067 61.8304 46.8903C61.4001 46.9739 60.9906 47.1413 60.6251 47.3832C60.2595 47.6251 59.9453 47.9365 59.7001 48.2999C58.6342 49.8949 57.1913 51.2025 55.4994 52.1068C53.8074 53.0111 51.9186 53.4842 50.0001 53.4842C48.0817 53.4842 46.1928 53.0111 44.5009 52.1068C42.8089 51.2025 41.3661 49.8949 40.3001 48.2999Z" fill="#C5C6CA"/>
<path d="M82.2 63.5C82.3 63.5 82.3667 63.6 82.3334 63.7C81.8471 64.7133 81.1935 65.6373 80.4 66.4333L66.2667 80.5667C65.4707 81.3601 64.5466 82.0137 63.5333 82.5C63.5117 82.5128 63.487 82.5192 63.4618 82.5186C63.4367 82.5179 63.4123 82.5102 63.3914 82.4962C63.3705 82.4823 63.354 82.4627 63.3437 82.4398C63.3334 82.4169 63.3298 82.3915 63.3334 82.3667V73.5C63.3334 70.8478 64.3869 68.3043 66.2623 66.4289C68.1376 64.5536 70.6812 63.5 73.3334 63.5H82.2Z" fill="#C5C6CA"/>
</svg>
