<svg width="100" height="100" viewBox="0 0 100 100" fill="none" xmlns="http://www.w3.org/2000/svg">
<path fill-rule="evenodd" clip-rule="evenodd" d="M46.6332 20.7C46.7032 20.2644 46.6868 19.8194 46.5848 19.3902C46.4828 18.961 46.2973 18.556 46.0389 18.1985C45.7804 17.841 45.4541 17.5379 45.0785 17.3066C44.7029 17.0752 44.2854 16.92 43.8498 16.85C43.4143 16.7799 42.9692 16.7964 42.54 16.8984C42.1108 17.0003 41.7059 17.1858 41.3484 17.4443C40.9909 17.7027 40.6878 18.0291 40.4564 18.4047C40.225 18.7803 40.0699 19.1978 39.9998 19.6333L37.1665 36.8333H23.3332C22.4491 36.8333 21.6013 37.1845 20.9761 37.8096C20.351 38.4347 19.9998 39.2826 19.9998 40.1666C19.9998 41.0507 20.351 41.8985 20.9761 42.5237C21.6013 43.1488 22.4491 43.5 23.3332 43.5H36.0665L33.8332 56.8333H19.9998C19.1158 56.8333 18.2679 57.1845 17.6428 57.8096C17.0177 58.4347 16.6665 59.2826 16.6665 60.1666C16.6665 61.0507 17.0177 61.8985 17.6428 62.5236C18.2679 63.1488 19.1158 63.5 19.9998 63.5H32.7332L30.0665 79.6333C29.985 80.4761 30.2274 81.3184 30.7443 81.989C31.2613 82.6597 32.0141 83.1085 32.8499 83.2442C33.6857 83.38 34.5419 83.1926 35.2445 82.7201C35.9472 82.2475 36.4437 81.5253 36.6332 80.7L39.4998 63.5H56.0665L53.3998 79.6333C53.3184 80.4761 53.5607 81.3184 54.0777 81.989C54.5946 82.6597 55.3474 83.1085 56.1833 83.2442C57.0191 83.38 57.8752 83.1926 58.5779 82.7201C59.2805 82.2475 59.777 81.5253 59.9665 80.7L62.8332 63.5H76.6665C77.5506 63.5 78.3984 63.1488 79.0235 62.5236C79.6486 61.8985 79.9998 61.0507 79.9998 60.1666C79.9998 59.2826 79.6486 58.4347 79.0235 57.8096C78.3984 57.1845 77.5506 56.8333 76.6665 56.8333H63.9332L66.1665 43.5H79.9998C80.8839 43.5 81.7317 43.1488 82.3569 42.5237C82.982 41.8985 83.3332 41.0507 83.3332 40.1666C83.3332 39.2826 82.982 38.4347 82.3569 37.8096C81.7317 37.1845 80.8839 36.8333 79.9998 36.8333H67.2665L69.9332 20.7C70.0352 20.2556 70.045 19.7951 69.9619 19.3469C69.8789 18.8986 69.7048 18.4722 69.4504 18.0939C69.196 17.7156 68.8667 17.3935 68.4828 17.1475C68.099 16.9016 67.6688 16.7369 67.2188 16.6639C66.7688 16.5908 66.3086 16.6107 65.8667 16.7226C65.4247 16.8344 65.0104 17.0357 64.6494 17.314C64.2883 17.5923 63.9882 17.9418 63.7675 18.3407C63.5468 18.7396 63.4104 19.1796 63.3665 19.6333L60.4998 36.8333H43.9332L46.5998 20.7H46.6332ZM57.1665 56.8333L59.3998 43.5H42.8332L40.5998 56.8333H57.1665Z" fill="#C5C6CA"/>
</svg>
