<svg width="100" height="100" viewBox="0 0 100 100" fill="none" xmlns="http://www.w3.org/2000/svg">
<path d="M50 19.5332C49.3791 18.9087 49.0307 18.0639 49.0307 17.1832C49.0307 16.3026 49.3791 15.4578 50 14.8332L51.2 13.6332C51.8245 13.0124 52.6693 12.6639 53.55 12.6639C54.4306 12.6639 55.2754 13.0124 55.9 13.6332L86.5666 44.2999C87.1774 44.923 87.5195 45.7607 87.5195 46.6332C87.5195 47.5058 87.1774 48.3435 86.5666 48.9666L84.2333 51.2999C83.683 51.8798 82.9426 52.2425 82.1472 52.3221C81.3517 52.4016 80.5542 52.1926 79.9 51.7332L48.1 29.3332C47.682 29.0425 47.3362 28.6599 47.089 28.2148C46.8419 27.7697 46.7 27.2738 46.6743 26.7654C46.6485 26.2569 46.7396 25.7492 46.9405 25.2814C47.1414 24.8136 47.4468 24.398 47.8333 24.0666L51.1666 20.7332L50 19.4999V19.5332ZM50 80.8333C50.6208 81.4578 50.9693 82.3026 50.9693 83.1833C50.9693 84.0639 50.6208 84.9087 50 85.5332L48.8333 86.6999C48.2087 87.3207 47.3639 87.6692 46.4833 87.6692C45.6027 87.6692 44.7578 87.3207 44.1333 86.6999L13.4666 56.0666C12.8458 55.442 12.4973 54.5972 12.4973 53.7166C12.4973 52.836 12.8458 51.9911 13.4666 51.3666L15.8 49.0332C16.3545 48.4585 17.097 48.102 17.8923 48.0285C18.6876 47.9551 19.4829 48.1697 20.1333 48.6332L51.9333 71.0333C52.3491 71.3266 52.6923 71.7114 52.9364 72.1579C53.1805 72.6044 53.3191 73.1009 53.3417 73.6094C53.3642 74.1178 53.27 74.6246 53.0663 75.091C52.8626 75.5574 52.5549 75.9709 52.1666 76.2999L48.8333 79.6332L50 80.8333ZM62.2 66.1666C61.7112 66.8973 60.9536 67.4053 60.0921 67.5802C59.2305 67.755 58.3348 67.5824 57.6 67.0999L29.3 48.2332C28.9097 48.0026 28.5707 47.6947 28.3035 47.3285C28.0363 46.9623 27.8466 46.5455 27.7461 46.1035C27.6455 45.6614 27.6361 45.2036 27.7185 44.7578C27.8009 44.3121 27.9734 43.8878 28.2254 43.511C28.4773 43.1342 28.8035 42.8127 29.184 42.5662C29.5644 42.3198 29.9912 42.1535 30.4381 42.0776C30.885 42.0017 31.3427 42.0177 31.7831 42.1247C32.2236 42.2317 32.6377 42.4274 33 42.6999L61.3 61.5332C61.6637 61.778 61.9756 62.0921 62.2178 62.4576C62.46 62.8231 62.6276 63.2328 62.7113 63.6632C62.7949 64.0936 62.7927 64.5362 62.705 64.9658C62.6173 65.3954 62.4456 65.8034 62.2 66.1666ZM67 57.6666C67.3622 57.9391 67.7763 58.1348 68.2168 58.2418C68.6573 58.3488 69.115 58.3648 69.5619 58.2889C70.0088 58.213 70.4355 58.0467 70.8159 57.8003C71.1964 57.5538 71.5226 57.2323 71.7745 56.8555C72.0265 56.4787 72.199 56.0544 72.2814 55.6087C72.3638 55.1629 72.3544 54.7051 72.2539 54.263C72.1533 53.821 71.9636 53.4042 71.6964 53.038C71.4292 52.6718 71.0902 52.3639 70.7 52.1332L42.4333 33.2666C41.6998 32.833 40.8281 32.6967 39.9973 32.8857C39.1665 33.0748 38.4396 33.5748 37.966 34.2831C37.4924 34.9914 37.308 35.8542 37.4507 36.6942C37.5934 37.5343 38.0523 38.2877 38.7333 38.7999L67.0333 57.6666H67Z" fill="#C5C6CA"/>
</svg>
