<svg width="10667" height="10667" viewBox="0 0 10667 10667" fill="none" xmlns="http://www.w3.org/2000/svg">
<path fill-rule="evenodd" clip-rule="evenodd" d="M5825.56 2107.57C5782.72 2176.39 5755.23 2223.14 5651.35 2403.98C5640.01 2423.72 5588.89 2512.6 5537.75 2601.47C5408.25 2826.53 5416.15 2812.71 5288.73 3037.36C5225.55 3148.72 5173.87 3241.19 5173.87 3242.84C5173.87 3244.5 5210.53 3248.14 5255.33 3250.95C5357.15 3257.34 5478.66 3277.15 5586.86 3305.01C5632.71 3316.82 5674.11 3326.55 5678.87 3326.64C5690.16 3326.85 5693.24 3314.04 5715.37 3174.73C5725.61 3110.25 5746.07 2981.55 5760.83 2888.73C5775.6 2795.91 5799.42 2652.1 5813.76 2569.15C5828.11 2486.2 5845.6 2381.76 5852.63 2337.04C5859.66 2292.33 5868.17 2258.4 5871.53 2261.64C5885.5 2275.11 5929.77 2369.43 6008.49 2553.42C6130.27 2838.07 6298.11 3243.59 6318.17 3301.67C6327.73 3329.32 6355.59 3403.65 6380.1 3466.84C6404.6 3530.04 6444.16 3637.44 6468 3705.51C6491.85 3773.58 6513.38 3829.32 6515.85 3829.39C6524.12 3829.61 6567.6 3715.39 6590.74 3632.65C6632.2 3484.39 6637.65 3446.63 6641.6 3280.12L6645.35 3122.13L6578.35 3031.1C6498.8 2923.04 6276.12 2629.5 6132.54 2443.47C6076.15 2370.4 5997.65 2268.6 5958.12 2217.26C5918.59 2165.91 5876.85 2113.37 5865.38 2100.52L5844.51 2077.15L5825.56 2107.57ZM4097.96 2224.82C4098.03 2244.36 4101.31 2289.43 4105.25 2324.98C4109.18 2360.53 4119.46 2488.18 4128.09 2608.65C4136.72 2729.12 4150.43 2910.09 4158.53 3010.82C4166.63 3111.54 4173.9 3223.83 4174.69 3260.37C4175.47 3296.91 4179.32 3326.8 4183.24 3326.8C4187.15 3326.8 4215.47 3304.58 4246.16 3277.42C4306.42 3224.09 4441.63 3123.16 4544.92 3054.41C4719.04 2938.5 4762.51 2913.77 4933.28 2833.4C4978.09 2812.31 5014.63 2792.7 5014.49 2789.83C5014.36 2786.95 4972.58 2758.85 4921.66 2727.39C4835.95 2674.43 4748.87 2617.78 4730.38 2602.96C4721.65 2595.97 4608.95 2524.19 4450.2 2424.51C4391.85 2387.88 4313.59 2337.57 4276.28 2312.72C4238.99 2287.86 4194.95 2260.38 4178.43 2251.64C4161.92 2242.91 4137.03 2225.31 4123.12 2212.53L4097.83 2189.3L4097.96 2224.82ZM5105.67 2933.92C4871.38 3036.09 4605.62 3186.14 4417.6 3322.4C4378.83 3350.5 4334.5 3382.58 4319.08 3393.71C4303.67 3404.83 4282.54 3421.03 4272.12 3429.71C4261.7 3438.4 4228.7 3462.69 4198.79 3483.7C4146.45 3520.47 4141.73 3526.37 4072.88 3641.59C4033.55 3707.42 3988.38 3783.91 3972.52 3811.56C3956.66 3839.21 3925.98 3890.91 3904.35 3926.46L3865.02 3991.1L3848.12 4123.95C3825.42 4302.56 3804.11 4434.04 3796.87 4440.19C3793.6 4442.98 3748.3 4473.03 3696.21 4506.99C3644.11 4540.94 3572.5 4588.33 3537.07 4612.3C3428.16 4685.99 3080.61 4908.78 3044.52 4928.04C3012.51 4945.13 2971.72 4971.2 2695.98 5150.92C2635.57 5190.29 2585.08 5225.51 2583.79 5229.19C2581.07 5236.91 2578.25 5235.99 2706.7 5269.22C2760.55 5283.15 2813.97 5294.54 2825.4 5294.54C2836.83 5294.54 2881.43 5278.77 2924.51 5259.5C3109.81 5176.58 3139.39 5164.71 3155.67 5166.73C3172.74 5168.85 3172.7 5169.05 3150.44 5193.11C3138.1 5206.44 3105.38 5258.15 3077.73 5308.01C3024.81 5403.47 2998.53 5446.28 2954.92 5508.16C2932.02 5540.66 2929.53 5548.21 2936.74 5563.21C2950.32 5591.47 3014.32 5671.13 3028.05 5676.89C3035.02 5679.81 3132.8 5703.69 3245.33 5729.95C3460.95 5780.26 3520.17 5787.04 3588.34 5769.19C3629.13 5758.52 3947.23 5614.16 4325.16 5434.81C4611.53 5298.93 4792.89 5218.36 4799.13 5224.26C4806.78 5231.52 4424.72 5533.73 4328.89 5596.21C4310.17 5608.41 4294.85 5619.98 4294.85 5621.89C4294.85 5623.82 4311.07 5623.35 4330.88 5620.86C4374 5615.44 4518.98 5628.25 4589.2 5643.68C4718.15 5672.02 4864.82 5740.49 4950.33 5812.26C4987.52 5843.47 5020.83 5869.07 5024.28 5869.07C5030.47 5869.07 5056.86 5806.09 5088.98 5714.66C5126.73 5607.21 5147.89 5471.11 5140.07 5386.1C5137.16 5354.5 5132.98 5324.2 5130.78 5318.78C5128.58 5313.35 5130.09 5308.91 5134.12 5308.91C5144.47 5308.91 5185.27 5403.8 5203.92 5471.22C5212.54 5502.42 5224.63 5566.43 5230.78 5613.47C5236.93 5660.51 5243.42 5700.39 5245.22 5702.08C5252.82 5709.29 5507.34 5519.85 5507.22 5507.07C5507.09 5492.53 5428.79 5399.12 5371.19 5344.78C5308.91 5286.03 5211.31 5211.78 5139.77 5168.75C5114.77 5153.71 5080.17 5132.27 5062.89 5121.11C5022.51 5095.03 4886.84 5034.58 4796.6 5002.44C4670.41 4957.51 4439.18 4899.22 4270.23 4869.73C4217.09 4860.46 4173.61 4850.01 4173.61 4846.5C4173.6 4831.77 4465.88 4294.62 4476.97 4289C4524.59 4264.85 4832.57 4238.46 5071.57 4238.05C5322.64 4237.62 5438.53 4249.42 5651.13 4297.08C5990.39 4373.12 6272.23 4517.1 6492.41 4726.83C6655.69 4882.37 6749.28 5022.04 6805.42 5194C6839.26 5297.62 6846.37 5337.89 6852.9 5463.02L6858.14 5563.26L6883.61 5515.36C6962.67 5366.75 7003.04 5151.21 6985.3 4972.44C6965.98 4777.65 6915.97 4625.71 6821.77 4475.61C6811.06 4458.55 6769.94 4401.29 6765.22 4396.85C6763.11 4394.88 6741.63 4370.1 6717.48 4341.78C6557.44 4154.15 6300.47 3989.77 6047.81 3913.42C5866.02 3858.48 5652.93 3827.16 5456.15 3826.44C5375.92 3826.16 5310.27 3824.3 5310.27 3822.31C5310.27 3817.01 5368.52 3789.32 5416.36 3771.87C5522.91 3733.02 5881.01 3711.76 6093.09 3731.71C6158.96 3737.9 6216.07 3744.85 6220.02 3747.16C6223.96 3749.47 6227.06 3748.75 6226.9 3745.55C6226.48 3736.6 6170.53 3705.08 6087 3666.71C6045.32 3647.56 5999.28 3624.96 5984.7 3616.47C5946.35 3594.17 5787.17 3532.45 5680.75 3498.61C5573.87 3464.62 5390.13 3423.8 5314.06 3417.13C5203.27 3407.42 5010.73 3446.89 4795.36 3523.48C4722.63 3549.33 4661.96 3569.39 4660.53 3568.04C4656.2 3563.92 4694.08 3490.29 4716.8 3458.66C4763.65 3393.42 4815.74 3327.41 4866.59 3268.83C4895.97 3234.97 4931.95 3193.24 4946.54 3176.08C4961.13 3158.93 4976.47 3141.39 4980.64 3137.09C5137.36 2975.58 5210.73 2895.91 5202.77 2895.91C5197.29 2895.91 5153.59 2913.01 5105.67 2933.92ZM6065.84 3245.53C6057.31 3258.94 5984.7 3437.28 5984.81 3444.56C5984.92 3452.18 6173.6 3552.35 6178.71 3547.5C6181.09 3545.24 6076.71 3246.72 6071.87 3241.94C6070.61 3240.69 6067.89 3242.31 6065.84 3245.53ZM6821.33 3348.35C6838.3 3450.48 6842.8 3502.61 6843.32 3603.29C6843.81 3700.45 6841.24 3728.18 6826.63 3782.82C6792.01 3912.3 6745.54 4028.17 6702.11 4093.29C6690.97 4110 6681.85 4125.81 6681.85 4128.43C6681.85 4131.04 6702.15 4131.17 6726.96 4128.72C6855.2 4116.01 7141.41 4159.8 7286.09 4214.27C7343.35 4235.83 7516.72 4315.76 7555.57 4338.51C7570.99 4347.54 7583.5 4352.25 7583.38 4348.97C7582.69 4331.09 7420.82 4102.02 7226.45 3843.87C7189.28 3794.5 7150.47 3742.79 7140.22 3728.97C7129.96 3715.14 7107.03 3685.2 7089.26 3662.42C7071.49 3639.64 7028.1 3583.08 6992.84 3536.74C6932.16 3457 6851.28 3357.61 6827.83 3333.98C6818.54 3324.62 6817.69 3326.49 6821.33 3348.35ZM4719.21 4382.85C4679.61 4385.71 4630.17 4388.48 4609.33 4389L4571.44 4389.92L4543.73 4434.68C4528.5 4459.3 4507.13 4496.41 4496.25 4517.14C4473.04 4561.36 4465.47 4558.73 4583.07 4547.29C4630 4542.73 4671.8 4534.39 4688.74 4526.2C4732.43 4505.07 4870.76 4394.75 4870.76 4381.03C4870.76 4374.6 4825.45 4375.15 4719.21 4382.85ZM5079.15 4449.17C5004.13 4490.11 4888.19 4551.39 4821.51 4585.35C4754.82 4619.31 4674.69 4660.24 4643.43 4676.3C4612.17 4692.37 4560.42 4718.97 4528.44 4735.4C4496.45 4751.85 4461.23 4772.14 4450.17 4780.5L4430.07 4795.69L4512.12 4808.9C4638.22 4829.2 4860.37 4882.49 4979.42 4920.98C5327.86 5033.65 5614.35 5192.77 5831.52 5394.27C5871.61 5431.46 5903.26 5455.73 5905.08 5450.66C5911.77 5432.05 5931.36 5353.44 5942.2 5301.73C5968.43 5176.57 5972.69 5128.72 5972.56 4960.6C5972.45 4806.58 5970.31 4776.78 5952.41 4680.52C5941.4 4621.28 5927.19 4556.49 5920.82 4536.56L5909.25 4500.32L5831.41 4477.14C5655.69 4424.8 5454.06 4388.16 5291.33 4379L5215.55 4374.73L5079.15 4449.17ZM6962.23 4395.65C6962.23 4400.14 6986.96 4419.44 7017.17 4438.54C7177.42 4539.84 7283.55 4620.18 7426.92 4748.75C7492.48 4807.53 7679.16 4985.87 7704.75 5014.14C7713.52 5023.84 7738.45 5049.85 7760.13 5071.93C7819.44 5132.31 7880.83 5207.28 7927.72 5276.59C7933.07 5284.49 7945.05 5302.26 7954.34 5316.09L7971.25 5341.22L7966.79 5247.86C7964.33 5196.52 7957.36 5133.5 7951.28 5107.82C7908.8 4928.23 7894.78 4889.56 7834.54 4786C7796.67 4720.89 7715.78 4628.86 7655.6 4582.39C7560.6 4509.07 7408.14 4448.54 7234.68 4415.3C7125.59 4394.4 6962.23 4382.61 6962.23 4395.65ZM7094.02 4717.16C7104.87 4765.52 7136.52 5025.7 7136.55 5066.75C7136.59 5128.84 7169.01 5333.21 7193.21 5423.81C7204.28 5465.29 7230.42 5547.69 7251.29 5606.94C7285.52 5704.09 7310.12 5761.81 7390.56 5933.7C7413.41 5982.54 7468.05 6110.79 7480.55 6144.96C7487.74 6164.61 7495.84 6153.02 7515.25 6095.29C7552.03 5985.88 7568.32 5911.05 7583.25 5782.89C7591.79 5709.48 7575.2 5509.6 7553.09 5419.49C7492.04 5170.81 7370.92 4960.14 7182.62 4775.15C7155.18 4748.19 7122.97 4719.43 7111.04 4711.25L7089.36 4696.35L7094.02 4717.16ZM6143.83 4757.85C6143.83 4759.65 6152.42 4786.61 6162.91 4817.77C6201.86 4933.4 6214.28 5009.53 6214.9 5136.55C6215.53 5263.96 6205.75 5328.51 6171.06 5425.95C6160.93 5454.4 6150.44 5487.99 6147.73 5500.61C6145.03 5513.23 6131.11 5538.08 6116.8 5555.84C6102.49 5573.6 6090.79 5591.06 6090.79 5594.63C6090.79 5606.81 5939.09 5760.93 5874.11 5814.77C5816.36 5862.62 5689.44 5951.65 5646.28 5974.57C5626.25 5985.21 5619.98 5980.03 5628.54 5959.91C5660.48 5884.81 5762.02 5540.73 5754.38 5533.5C5752.19 5531.42 5715.31 5556.14 5672.42 5588.43C5629.53 5620.73 5553.52 5674.94 5503.51 5708.88C5453.49 5742.84 5391.63 5786.31 5366.03 5805.48C5340.43 5824.65 5317.27 5840.34 5314.55 5840.34C5296.47 5840.34 5071.06 6017.33 4962.67 6116.64C4848.61 6221.14 4751.62 6337.79 4679.58 6457.12C4594.97 6597.25 4524.03 6792.2 4492.41 6971.43C4487.53 6999.08 4476.59 7058.46 4468.09 7103.38C4452.46 7185.96 4447.17 7324.41 4455.58 7430.86C4459.12 7475.78 4461.47 7481.7 4478.38 7488.31C4488.76 7492.37 4502.42 7499.78 4508.76 7504.78C4529.04 7520.83 4540.7 7507.59 4559.57 7447.1C4639.38 7191.2 4816.1 6948.05 5075.36 6737.39C5124.07 6697.81 5296.04 6580.04 5305.13 6580.04C5307.71 6580.04 5348.29 6557.07 5395.3 6529C5442.31 6500.93 5526.81 6455.67 5583.07 6428.42C5690.36 6376.47 5698.06 6372.47 5788.34 6321.69C5846.5 6288.98 5963.11 6216.84 6022.59 6176.78C6057.31 6153.4 6176.07 6058.01 6230.97 6009.39C6247.65 5994.64 6272.39 5974.41 6285.95 5964.43C6365.12 5906.25 6470.65 5731.27 6508.04 5596.17C6522.13 5545.28 6519.86 5366.32 6504.22 5294.54C6469.95 5137.25 6375.72 4973.05 6243.19 4839.7C6213.77 4810.09 6143.83 4752.48 6143.83 4757.85ZM6975.76 5712.44C6837.35 5876.86 6737.28 6010.68 6688.4 6096.74C6675.39 6119.64 6642.59 6174.87 6615.52 6219.47C6588.45 6264.07 6568.25 6302.42 6570.64 6304.69C6578.86 6312.46 6721.73 6224.47 6783.21 6173.77C6938.63 6045.58 6996.54 5940.72 7026.44 5733.34C7032.94 5688.3 7036.86 5650.14 7035.14 5648.52C7033.44 5646.9 7006.71 5675.66 6975.76 5712.44ZM4109.19 5779.67C4031.01 5793.5 3854.43 5840.23 3771.98 5868.9C3736.56 5881.21 3678.59 5900.98 3643.16 5912.82L3578.75 5934.36L3502.97 5922.53C3461.29 5916.03 3421.81 5907.98 3415.21 5904.64C3408.63 5901.31 3354.07 5886.96 3293.97 5872.74C3233.88 5858.52 3178.74 5845.2 3171.44 5843.13C3164.15 5841.07 3158.18 5842.33 3158.18 5845.94C3158.18 5855.03 3270.75 5993.4 3283.91 6000.48C3311.47 6015.32 3537.53 6091.7 3553.89 6091.7C3564.08 6091.7 3611 6078.65 3658.16 6062.71C3815.77 6009.42 4034.61 5957.97 4193.57 5936.83C4354.68 5915.4 4630.46 5928.89 4862.56 5969.55C4927.25 5980.89 4930.44 5979.19 4897.28 5951.12C4818.99 5884.83 4699.02 5829.55 4560.13 5795.77C4481 5776.52 4458.9 5774.3 4321.37 5771.75C4208.36 5769.65 4154.4 5771.66 4109.19 5779.67ZM4521.83 6107.08C4432.09 6205.54 4336.01 6410.91 4298.87 6583.63C4283.82 6653.67 4275.43 6840.29 4283.38 6928.34C4290.2 7003.84 4290.91 7002.73 4327.06 6860.12C4353.09 6757.48 4405.34 6614 4441.31 6546.41C4451.44 6527.38 4469.11 6489.19 4480.57 6461.54C4492.05 6433.9 4505.66 6406.43 4510.82 6400.5C4515.99 6394.58 4521.51 6386.5 4523.09 6382.55C4534.46 6354.28 4588.05 6279.31 4652.9 6200.93C4672.7 6177 4688.9 6155.79 4688.9 6153.8C4688.9 6148.59 4604.33 6100.67 4573.83 6088.59C4548.15 6078.42 4547.85 6078.52 4521.83 6107.08ZM6314.33 6174.76C6134.64 6310.45 6007.89 6446.89 5932.96 6585.3C5885.7 6672.6 5803.4 6877.41 5812.22 6885.77C5816 6889.36 5982.76 6739.51 6148.44 6583.65C6294.75 6446.02 6346.57 6366.81 6392.76 6210.19C6411.89 6145.34 6418.88 6106.05 6411.29 6106.08C6407.98 6106.09 6364.34 6137 6314.33 6174.76ZM7185.78 6190.3C7109.11 6258.62 6901.46 6407.68 6882.93 6407.68C6880.53 6407.68 6864.15 6416.37 6846.52 6426.99C6807.14 6450.71 6595.22 6563.37 6507.56 6607.19C6261 6730.41 6075.65 6887.01 5927.57 7097.2C5876.55 7169.61 5803.22 7295.5 5802.97 7311.08C5802.9 7316.2 5829.25 7301.41 5861.56 7278.21C5976.53 7195.67 6129.09 7107.05 6269.73 7041.13C6409.21 6975.75 6642.35 6860.06 6704.59 6825.34C6957.27 6684.37 7102.47 6536.14 7189.68 6330.12C7218.12 6262.97 7254.97 6143.91 7248.97 6138.57C7247.56 6137.31 7219.12 6160.58 7185.78 6190.3ZM5624.03 6686.64C5525.35 6747.5 5391.31 6863.8 5290.86 6975.71C5116.6 7169.85 4999.51 7425.77 4980.65 7653.68C4978.04 7685.28 4974.18 7716.78 4972.08 7723.69C4969.36 7732.63 4974.41 7738.34 4989.6 7743.49C5001.34 7747.47 5020.25 7755.69 5031.62 7761.76C5072.48 7783.58 5172.84 7789.41 5219.34 7772.66C5281.35 7750.34 5340.72 7719.2 5356.95 7700.5C5363.87 7692.52 5377.09 7686 5386.31 7686C5395.54 7686 5423.51 7673.07 5448.48 7657.27C5473.44 7641.47 5498.98 7628.54 5505.23 7628.54C5520.53 7628.54 5573.93 7599.67 5578.22 7589.08C5580.11 7584.41 5576.9 7561.5 5571.09 7538.14C5555.47 7475.4 5549.94 7309.56 5559.37 7186.29C5572.68 7012.33 5629.61 6768.89 5677.52 6681.08C5694.23 6650.45 5680.36 6651.9 5624.03 6686.64Z" fill="white"/>
</svg>
