<svg width="1020" height="250" viewBox="0 0 1020 250" fill="none" xmlns="http://www.w3.org/2000/svg">
<path d="M262.211 170L239.555 80.4H271.811L283.843 132.752L297.923 80.4H333.635L348.995 135.568L361.539 80.4H393.54L371.012 170H330.051L314.179 114.832L299.203 170H262.211ZM443.258 172.56C412.154 172.56 394.362 154.384 394.362 131.6C394.362 108.688 412.154 91.792 443.258 91.792C474.362 91.792 492.026 108.56 492.026 131.6C492.026 154.512 474.362 172.56 443.258 172.56ZM443.258 149.136C454.138 149.136 460.666 142.224 460.666 132.112C460.666 122 454.138 115.344 443.258 115.344C432.25 115.344 425.722 122 425.722 132.112C425.722 142.224 432.25 149.136 443.258 149.136ZM502.699 170V77.84H533.931V170H502.699ZM563.428 170V127.888H542.948V106.128H563.044C562.916 105.104 562.916 104.08 562.916 103.056C562.916 83.728 576.74 73.616 601.06 73.616C611.684 73.616 618.724 75.664 623.716 78.352V98.448C619.876 96.272 615.012 95.12 609.252 95.12C597.988 95.12 594.148 99.6 594.148 106.128H622.308V127.888H594.66V170H563.428ZM668.956 172.56C654.236 172.56 640.028 168.848 628.892 162.064V140.816C637.34 147.344 653.084 151.952 666.14 151.952C672.796 151.952 675.484 149.904 675.484 147.856C675.484 145.552 674.46 143.76 669.212 142.48L653.852 139.024C635.804 134.8 629.532 127.632 629.532 116.24C629.532 101.392 644.892 91.792 669.212 91.792C684.316 91.792 696.476 95.504 703.772 99.984V120.08C696.092 115.6 685.212 112.272 673.692 112.272C665.116 112.272 661.66 113.808 661.66 116.368C661.66 119.184 664.22 119.952 670.364 121.232L683.164 123.536C699.036 126.352 707.996 132.368 707.996 147.216C707.996 162.32 694.428 172.56 668.956 172.56ZM732.931 170V117.52H712.067V95.12H732.931V82.064L764.291 77.456V95.12H786.947V117.52H764.291V170H732.931ZM818.26 172.56C800.852 172.56 790.868 162.064 790.868 148.24C790.868 133.904 801.748 123.792 820.052 123.792C830.548 123.792 838.1 126.736 843.988 133.776C843.092 121.872 833.108 115.984 819.412 115.984C810.068 115.984 801.364 119.312 794.452 125.2V101.776C802.516 96.272 813.908 91.792 829.652 91.792C858.58 91.792 874.452 106.128 874.452 132.368V170H844.116V160.656C838.868 168.336 830.42 172.56 818.26 172.56ZM830.932 154.896C838.612 154.896 844.116 151.568 844.116 146.32C844.116 141.328 838.868 138 831.06 138C823.892 138 819.412 141.456 819.412 146.448C819.412 151.568 823.892 154.896 830.932 154.896ZM887.449 170V95.12H918.169V118.928C921.625 101.264 929.305 93.456 941.081 93.456C946.329 93.456 950.298 94.992 952.729 96.528V124.176C950.169 122.512 945.817 120.976 940.057 120.976C927.001 120.976 918.809 128.4 918.809 146.448V170H887.449Z" fill="black"/>
<path fill-rule="evenodd" clip-rule="evenodd" d="M135.357 26.0664C133.766 28.479 132.746 30.1179 128.89 36.4571C128.469 37.1494 126.572 40.2649 124.674 43.3803C119.867 51.2701 120.16 50.7854 115.431 58.6608C113.086 62.5648 111.168 65.8063 111.168 65.8643C111.168 65.9222 112.528 66.05 114.191 66.1485C117.97 66.3723 122.481 67.0669 126.497 68.0437C128.198 68.4576 129.735 68.7987 129.912 68.8017C130.331 68.8093 130.445 68.3601 131.267 63.4764C131.647 61.2161 132.406 56.7044 132.954 53.4505C133.502 50.1966 134.386 45.1552 134.919 42.2474C135.451 39.3397 136.1 35.6782 136.361 34.1107C136.623 32.5433 136.938 31.3538 137.063 31.4673C137.581 31.9396 139.225 35.2461 142.147 41.6961C146.667 51.6746 152.897 65.8904 153.641 67.9264C153.996 68.8956 155.03 71.5013 155.94 73.7167C156.85 75.9322 158.318 79.6971 159.203 82.0833C160.088 84.4696 160.887 86.4238 160.979 86.426C161.286 86.4338 162.9 82.4297 163.759 79.5292C165.298 74.332 165.5 73.008 165.646 67.1711L165.785 61.6325L163.299 58.4415C160.346 54.6531 152.08 44.3632 146.751 37.8417C144.658 35.2801 141.744 31.7115 140.277 29.9115C138.81 28.1114 137.26 26.2698 136.835 25.8192L136.06 25L135.357 26.0664ZM71.2319 30.1768C71.2347 30.8616 71.3565 32.4416 71.5025 33.6878C71.6484 34.934 72.0301 39.4089 72.3505 43.6321C72.6708 47.8553 73.1794 54.1995 73.4801 57.7303C73.781 61.2612 74.0508 65.1979 74.08 66.4788C74.109 67.7597 74.2519 68.8075 74.3973 68.8075C74.5427 68.8075 75.5938 68.0286 76.7327 67.0764C78.9696 65.2067 83.9883 61.6685 87.8221 59.2585C94.2851 55.1954 95.8985 54.3284 102.237 51.5107C103.9 50.7716 105.257 50.0843 105.252 49.9833C105.247 49.8826 103.696 48.8975 101.806 47.7946C98.6245 45.9379 95.3922 43.9521 94.7059 43.4327C94.3821 43.1875 90.1988 40.6712 84.3062 37.1771C82.1404 35.8929 79.2357 34.1294 77.851 33.258C76.4666 32.3867 74.8321 31.4233 74.219 31.1169C73.6061 30.8107 72.6821 30.1937 72.1657 29.7458L71.2271 28.9316L71.2319 30.1768ZM108.636 55.0345C99.9395 58.6165 90.0753 63.8764 83.0961 68.6532C81.6572 69.638 80.0117 70.7629 79.4396 71.1529C78.8675 71.5428 78.0831 72.1108 77.6963 72.4151C77.3096 72.7195 76.0849 73.5712 74.9747 74.3076C73.0317 75.5966 72.8568 75.8035 70.3011 79.8427C68.8411 82.1505 67.1647 84.8317 66.576 85.8009C65.9873 86.7702 64.8484 88.5828 64.0457 89.829L62.5856 92.0948L61.9587 96.7522C61.116 103.013 60.325 107.622 60.0561 107.838C59.9349 107.936 58.2535 108.99 56.3197 110.18C54.386 111.37 51.728 113.031 50.4131 113.872C46.3704 116.455 33.4702 124.265 32.1305 124.94C30.9424 125.539 29.4286 126.453 19.1934 132.753C16.9511 134.133 15.0773 135.368 15.0292 135.497C14.9285 135.768 14.8236 135.735 19.5914 136.9C21.5904 137.389 23.5731 137.788 23.9972 137.788C24.4217 137.788 26.0772 137.235 27.6763 136.56C34.5542 133.653 35.652 133.237 36.2564 133.308C36.8898 133.382 36.8884 133.389 36.0621 134.232C35.6042 134.7 34.3896 136.512 33.3633 138.26C31.3989 141.607 30.4234 143.108 28.805 145.277C27.9547 146.416 27.8625 146.681 28.1302 147.207C28.6343 148.197 31.0096 150.99 31.5193 151.192C31.778 151.294 35.4073 152.131 39.5841 153.052C47.5874 154.815 49.7858 155.053 52.3158 154.427C53.8302 154.053 65.6371 148.993 79.6652 142.705C90.2944 137.942 97.0264 135.117 97.2578 135.324C97.5419 135.579 83.3605 146.173 79.8036 148.363C79.1086 148.791 78.5401 149.196 78.5401 149.264C78.5401 149.331 79.142 149.315 79.8776 149.227C81.478 149.037 86.8593 149.486 89.4658 150.027C94.2519 151.021 99.6962 153.421 102.87 155.937C104.251 157.031 105.487 157.929 105.615 157.929C105.845 157.929 106.824 155.721 108.016 152.516C109.418 148.749 110.203 143.978 109.913 140.998C109.805 139.89 109.649 138.828 109.568 138.638C109.486 138.447 109.542 138.292 109.692 138.292C110.076 138.292 111.591 141.618 112.283 143.982C112.603 145.075 113.051 147.319 113.28 148.968C113.508 150.617 113.749 152.015 113.816 152.075C114.098 152.327 123.545 145.686 123.541 145.239C123.536 144.729 120.629 141.454 118.492 139.549C116.18 137.49 112.557 134.887 109.902 133.378C108.974 132.851 107.689 132.1 107.048 131.708C105.549 130.794 100.514 128.675 97.1639 127.548C92.4802 125.973 83.8972 123.93 77.6263 122.896C75.654 122.571 74.0401 122.205 74.0401 122.081C74.0395 121.565 84.8884 102.735 85.3002 102.538C87.0677 101.691 98.4991 100.766 107.37 100.752C116.689 100.737 120.991 101.151 128.882 102.821C141.475 105.487 151.936 110.534 160.109 117.887C166.169 123.339 169.643 128.235 171.727 134.264C172.983 137.896 173.247 139.308 173.489 143.694L173.684 147.208L174.629 145.529C177.564 140.32 179.062 132.763 178.404 126.497C177.687 119.668 175.83 114.342 172.334 109.08C171.936 108.482 170.41 106.474 170.235 106.319C170.156 106.25 169.359 105.381 168.463 104.388C162.522 97.8106 152.984 92.0485 143.606 89.3718C136.858 87.4459 128.949 86.348 121.645 86.3228C118.667 86.3127 116.23 86.2475 116.23 86.178C116.23 85.9923 118.393 85.0212 120.168 84.4097C124.123 83.0477 137.415 82.3026 145.287 83.0017C147.732 83.2187 149.852 83.4626 149.998 83.5434C150.144 83.6245 150.26 83.5991 150.254 83.487C150.238 83.1734 148.161 82.0682 145.061 80.723C143.514 80.0519 141.805 79.2596 141.263 78.962C139.84 78.1803 133.932 76.0165 129.982 74.8302C126.014 73.6387 119.194 72.2077 116.371 71.9741C112.259 71.6337 105.112 73.0173 97.118 75.7021C94.4184 76.6084 92.1663 77.3115 92.1134 77.2642C91.9525 77.1199 93.3586 74.5387 94.2018 73.4297C95.9409 71.1428 97.8744 68.8289 99.7617 66.7753C100.852 65.5883 102.188 64.1254 102.729 63.5239C103.271 62.9228 103.84 62.3077 103.995 62.1569C109.812 56.4952 112.536 53.7023 112.24 53.7023C112.037 53.7023 110.415 54.3017 108.636 55.0345ZM144.275 65.9584C143.959 66.4284 141.264 72.6802 141.268 72.9355C141.272 73.2026 148.275 76.7141 148.465 76.5442C148.553 76.4649 144.679 66.0002 144.499 65.8325C144.452 65.7887 144.352 65.8454 144.275 65.9584ZM172.317 69.5628C172.948 73.1432 173.115 74.9705 173.134 78.5001C173.152 81.906 173.056 82.8781 172.514 84.7934C171.229 89.3325 169.504 93.3943 167.892 95.6772C167.479 96.2631 167.14 96.8172 167.14 96.9091C167.14 97.0007 167.894 97.0052 168.815 96.9191C173.575 96.4738 184.198 98.009 189.568 99.9183C191.694 100.674 198.129 103.476 199.571 104.274C200.143 104.59 200.608 104.755 200.603 104.64C200.578 104.014 194.569 95.9834 187.355 86.9338C185.975 85.203 184.534 83.3904 184.154 82.9058C183.773 82.4211 182.922 81.3713 182.263 80.5727C181.603 79.7742 179.992 77.7916 178.683 76.167C176.431 73.3718 173.429 69.8875 172.559 69.0593C172.214 68.731 172.182 68.7967 172.317 69.5628ZM94.2913 105.828C92.8216 105.928 90.9863 106.025 90.2129 106.043L88.8065 106.076L87.7782 107.645C87.2128 108.508 86.4196 109.809 86.0155 110.536C85.1542 112.086 84.8732 111.994 89.2382 111.593C90.9802 111.433 92.5317 111.14 93.1603 110.853C94.7821 110.113 99.9167 106.245 99.9167 105.764C99.9167 105.539 98.235 105.558 94.2913 105.828ZM107.652 108.153C104.867 109.588 100.564 111.736 98.0884 112.927C95.6133 114.117 92.6388 115.552 91.4786 116.115C90.3183 116.678 88.3975 117.611 87.2103 118.187C86.023 118.764 84.7157 119.475 84.3053 119.768L83.5591 120.3L86.6047 120.764C91.2851 121.475 99.5311 123.343 103.95 124.693C116.883 128.642 127.517 134.221 135.578 141.284C137.066 142.588 138.241 143.439 138.308 143.261C138.557 142.609 139.284 139.853 139.686 138.04C140.66 133.652 140.818 131.975 140.813 126.082C140.809 120.682 140.73 119.638 140.065 116.263C139.657 114.186 139.129 111.915 138.893 111.217L138.463 109.946L135.574 109.134C129.052 107.299 121.568 106.014 115.527 105.693L112.715 105.543L107.652 108.153ZM177.547 106.277C177.547 106.434 178.465 107.111 179.587 107.78C185.535 111.331 189.474 114.148 194.796 118.655C197.229 120.715 204.158 126.967 205.108 127.958C205.433 128.299 206.359 129.21 207.164 129.984C209.365 132.101 211.644 134.729 213.384 137.159C213.583 137.436 214.027 138.059 214.372 138.543L215 139.425L214.834 136.152C214.743 134.352 214.484 132.143 214.259 131.243C212.682 124.947 212.161 123.591 209.926 119.961C208.52 117.678 205.518 114.452 203.284 112.823C199.758 110.253 194.098 108.131 187.66 106.966C183.611 106.233 177.547 105.82 177.547 106.277ZM182.439 117.548C182.842 119.243 184.017 128.364 184.018 129.803C184.019 131.979 185.223 139.144 186.121 142.32C186.532 143.774 187.502 146.663 188.277 148.739C189.547 152.145 190.46 154.169 193.446 160.194C194.294 161.906 196.322 166.402 196.786 167.6C197.053 168.289 197.354 167.883 198.074 165.859C199.44 162.024 200.044 159.4 200.598 154.907C200.915 152.334 200.3 145.327 199.479 142.168C197.213 133.451 192.717 126.065 185.728 119.58C184.709 118.635 183.514 117.627 183.071 117.34L182.266 116.818L182.439 117.548ZM147.17 118.974C147.17 119.037 147.489 119.982 147.878 121.074C149.324 125.128 149.785 127.797 149.808 132.25C149.832 136.716 149.468 138.979 148.181 142.395C147.805 143.392 147.415 144.57 147.315 145.012C147.215 145.454 146.698 146.326 146.167 146.948C145.636 147.571 145.201 148.183 145.201 148.308C145.201 148.735 139.571 154.138 137.159 156.025C135.015 157.702 130.304 160.823 128.702 161.627C127.959 162 127.726 161.818 128.044 161.113C129.229 158.48 132.998 146.419 132.715 146.165C132.633 146.092 131.264 146.959 129.672 148.091C128.081 149.223 125.259 151.123 123.403 152.313C121.546 153.503 119.25 155.027 118.3 155.699C117.35 156.371 116.49 156.922 116.389 156.922C115.718 156.922 107.351 163.126 103.328 166.607C99.0945 170.271 95.4946 174.36 92.8205 178.543C89.6798 183.456 87.0466 190.29 85.8731 196.573C85.692 197.542 85.2858 199.624 84.9703 201.198C84.3903 204.093 84.1939 208.947 84.5059 212.678C84.6375 214.253 84.7247 214.461 85.3525 214.692C85.7376 214.835 86.2447 215.094 86.4798 215.27C87.2328 215.832 87.6657 215.368 88.366 213.248C91.3284 204.277 97.8876 195.753 107.511 188.368C109.319 186.981 115.702 182.852 116.039 182.852C116.135 182.852 117.642 182.047 119.387 181.063C121.131 180.079 124.268 178.492 126.356 177.537C130.338 175.716 130.624 175.576 133.975 173.796C136.134 172.649 140.462 170.12 142.67 168.716C143.959 167.896 148.367 164.552 150.405 162.848C151.024 162.33 151.942 161.621 152.445 161.272C155.384 159.232 159.301 153.098 160.689 148.362C161.212 146.578 161.128 140.304 160.547 137.788C159.275 132.274 155.777 126.518 150.858 121.843C149.766 120.805 147.17 118.786 147.17 118.974ZM178.049 152.438C172.912 158.202 169.198 162.893 167.383 165.91C166.9 166.713 165.683 168.649 164.678 170.212C163.673 171.776 162.924 173.12 163.012 173.199C163.317 173.472 168.62 170.388 170.902 168.61C176.672 164.116 178.821 160.44 179.931 153.17C180.172 151.592 180.317 150.254 180.254 150.197C180.191 150.14 179.198 151.149 178.049 152.438ZM71.649 154.794C68.7468 155.28 62.1927 156.917 59.1324 157.922C57.8175 158.354 55.6658 159.047 54.3508 159.462L51.96 160.217L49.1473 159.803C47.6003 159.575 46.1346 159.293 45.8899 159.176C45.6455 159.059 43.6204 158.556 41.3896 158.057C39.1591 157.559 37.1126 157.092 36.8417 157.019C36.5709 156.947 36.3495 156.991 36.3495 157.118C36.3495 157.436 40.5278 162.287 41.0161 162.535C42.0391 163.056 50.4299 165.733 51.0372 165.733C51.4155 165.733 53.1571 165.276 54.9075 164.717C60.7576 162.849 68.8807 161.045 74.7807 160.304C80.761 159.553 90.997 160.026 99.6121 161.451C102.013 161.849 102.132 161.789 100.901 160.805C97.995 158.481 93.542 156.543 88.3866 155.359C85.4495 154.684 84.6294 154.606 79.5246 154.517C75.3297 154.443 73.3271 154.514 71.649 154.794ZM86.965 166.272C83.6342 169.724 80.068 176.923 78.6895 182.978C78.1306 185.433 77.8192 191.976 78.1143 195.062C78.3674 197.709 78.3939 197.67 79.7358 192.671C80.7017 189.073 82.6413 184.043 83.9765 181.673C84.3523 181.006 85.0082 179.668 85.4338 178.698C85.8596 177.729 86.3648 176.766 86.5563 176.558C86.7482 176.351 86.9532 176.067 87.012 175.929C87.4339 174.938 89.423 172.31 91.8302 169.562C92.5651 168.723 93.1662 167.98 93.1662 167.91C93.1662 167.728 90.0275 166.048 88.8954 165.624C87.9422 165.267 87.9309 165.271 86.965 166.272ZM153.499 168.645C146.829 173.402 142.124 178.185 139.343 183.036C137.589 186.097 134.534 193.277 134.861 193.57C135.002 193.696 141.191 188.442 147.341 182.979C152.772 178.154 154.696 175.377 156.41 169.887C157.12 167.614 157.379 166.236 157.098 166.237C156.975 166.238 155.355 167.321 153.499 168.645ZM185.845 169.19C182.999 171.585 175.292 176.81 174.604 176.81C174.515 176.81 173.907 177.115 173.252 177.487C171.791 178.319 163.925 182.268 160.671 183.804C151.519 188.124 144.64 193.613 139.143 200.982C137.249 203.52 134.527 207.933 134.518 208.48C134.516 208.659 135.494 208.14 136.693 207.327C140.96 204.434 146.623 201.327 151.843 199.016C157.021 196.724 165.674 192.668 167.984 191.451C177.363 186.51 182.753 181.313 185.99 174.091C187.045 171.737 188.413 167.563 188.191 167.376C188.138 167.332 187.082 168.148 185.845 169.19ZM127.876 186.589C124.213 188.723 119.238 192.8 115.51 196.723C109.042 203.529 104.695 212.5 103.996 220.489C103.899 221.597 103.755 222.702 103.677 222.944C103.576 223.257 103.764 223.457 104.328 223.638C104.764 223.777 105.465 224.066 105.887 224.278C107.404 225.043 111.129 225.248 112.855 224.661C115.157 223.878 117.361 222.786 117.963 222.131C118.22 221.851 118.71 221.622 119.053 221.622C119.395 221.622 120.433 221.169 121.36 220.615C122.287 220.061 123.235 219.608 123.467 219.608C124.035 219.608 126.017 218.596 126.176 218.225C126.246 218.061 126.127 217.258 125.911 216.439C125.331 214.24 125.126 208.426 125.476 204.105C125.97 198.007 128.083 189.473 129.862 186.394C130.482 185.321 129.967 185.371 127.876 186.589Z" fill="black"/>
</svg>
